<?xml version="1.0" encoding="UTF-8" standalone="no"?>
<svg
   xmlns:dc="http://purl.org/dc/elements/1.1/"
   xmlns:cc="http://creativecommons.org/ns#"
   xmlns:rdf="http://www.w3.org/1999/02/22-rdf-syntax-ns#"
   xmlns:svg="http://www.w3.org/2000/svg"
   xmlns="http://www.w3.org/2000/svg"
   xmlns:sodipodi="http://sodipodi.sourceforge.net/DTD/sodipodi-0.dtd"
   xmlns:inkscape="http://www.inkscape.org/namespaces/inkscape"
   id="Layer_1"
   viewBox="0 0 55.6 55.6"
   version="1.1"
   inkscape:version="0.91 r13725"
   sodipodi:docname="commited.svg">
  <metadata
     id="metadata18">
    <rdf:RDF>
      <cc:Work
         rdf:about="">
        <dc:format>image/svg+xml</dc:format>
        <dc:type
           rdf:resource="http://purl.org/dc/dcmitype/StillImage" />
      </cc:Work>
    </rdf:RDF>
  </metadata>
  <defs
     id="defs16" />
  <sodipodi:namedview
     pagecolor="#ffffff"
     bordercolor="#666666"
     borderopacity="1"
     objecttolerance="10"
     gridtolerance="10"
     guidetolerance="10"
     inkscape:pageopacity="0"
     inkscape:pageshadow="2"
     inkscape:window-width="1366"
     inkscape:window-height="746"
     id="namedview14"
     showgrid="false"
     inkscape:zoom="5.8491875"
     inkscape:cx="1.4699147"
     inkscape:cy="21.546457"
     inkscape:window-x="0"
     inkscape:window-y="22"
     inkscape:window-maximized="0"
     inkscape:current-layer="Layer_1" />
  <style
     id="style3">.st0{fill:#26B67C;} .st1{fill:#F09F2E;} .st2{fill:#EA5D72;} .st3{fill:#CE311D;} .st4{fill:#1B7A51;} .st5{fill:#B56610;} .st6{fill:#BA354E;} .st7{fill:#932D0D;} .st8{fill:#00D177;} .st9{fill:#F6A82B;} .st10{fill:#F7636B;} .st11{fill:#ED5A2E;} .st12{fill:#46C190;} .st13{fill:#F2AD4D;} .st14{fill:#ED7587;} .st15{fill:#D5503F;} .st16{fill:#68CCA4;} .st17{fill:#F5BC6D;} .st18{fill:#F08E9D;} .st19{fill:#DD6F61;} .st20{fill:#92DABD;} .st21{fill:#F7CF96;} .st22{fill:#F4AEB8;} .st23{fill:#E6988E;} .st24{fill:#BDE9D7;} .st25{fill:#FAE2C0;} .st26{fill:#F9CED4;} .st27{fill:#F0C1BB;} .st28{fill:#DFF4EB;} .st29{fill:#FDF1E0;} .st30{fill:#FCE7EA;} .st31{fill:#F8E0DD;} .st32{fill:none;stroke:#CE311D;stroke-width:5;stroke-linecap:round;stroke-linejoin:round;stroke-miterlimit:10;} .st33{fill:#808080;} .st34{fill:#FFFFFF;} .st35{fill:#EE9E7F;} .st36{fill:none;stroke:#DD3E00;stroke-width:2;stroke-linecap:round;stroke-linejoin:round;stroke-miterlimit:10;} .st37{fill:#88D7B7;stroke:#26B67C;stroke-width:2;stroke-linecap:round;stroke-linejoin:round;stroke-miterlimit:10;} .st38{fill:#F7CA8C;stroke:#F09F2E;stroke-width:2;stroke-linecap:round;stroke-linejoin:round;stroke-miterlimit:10;} .st39{fill:#F3A6B2;stroke:#EA5D72;stroke-width:2;stroke-linecap:round;stroke-linejoin:round;stroke-miterlimit:10;} .st40{fill:#EC9573;stroke:#DD3E00;stroke-width:2;stroke-linecap:round;stroke-linejoin:round;stroke-miterlimit:10;} .st41{fill:#FFFFFF;stroke:#F09F2E;stroke-width:2;stroke-linecap:round;stroke-linejoin:round;stroke-miterlimit:10;} .st42{opacity:0.22;fill:#26B67C;} .st43{opacity:0.22;fill:#F09F2E;} .st44{opacity:0.22;fill:#EA5D72;} .st45{opacity:0.22;fill:#CE311D;} .st46{fill:#58B582;} .st47{fill:#FFD79E;} .st48{fill:#F0BF7D;} .st49{fill:#E53A05;} .st50{fill:#CC2D02;} .st51{fill:#F7AB9A;} .st52{fill:#F09F2E;stroke:#B56610;stroke-miterlimit:10;} .st53{fill:#DD3E00;stroke:#932D0D;stroke-miterlimit:10;} .st54{fill:#EA5D72;stroke:#BA354E;stroke-miterlimit:10;} .st55{fill:#26B67C;stroke:#1B7A51;stroke-miterlimit:10;} .st56{fill:#00D177;stroke:#1B7A51;stroke-miterlimit:10;} .st57{fill:#F7636B;stroke:#BA354E;stroke-miterlimit:10;} .st58{fill:#ED5A2E;stroke:#932D0D;stroke-miterlimit:10;} .st59{fill:#F6A82B;stroke-miterlimit:10;} .st60{fill:none;stroke:#B3B3B3;stroke-miterlimit:10;} .st61{fill:#A0A0A0;} .st62{fill:none;} .st63{fill:#FFFFFF;stroke:#EA5D72;stroke-width:4;stroke-linecap:round;stroke-linejoin:round;stroke-miterlimit:10;} .st64{fill:#FFFFFF;stroke:#26B67C;stroke-width:4;stroke-linecap:round;stroke-linejoin:round;stroke-miterlimit:10;} .st65{fill:none;stroke:#CE311D;stroke-width:4;stroke-linecap:round;stroke-linejoin:round;stroke-miterlimit:10;} .st66{fill:#FFFFFF;stroke:#CE311D;stroke-width:4;stroke-linecap:round;stroke-linejoin:round;stroke-miterlimit:10;} .st67{fill:#FFFFFF;stroke:#F09F2E;stroke-width:4;stroke-linecap:round;stroke-linejoin:round;stroke-miterlimit:10;} .st68{fill:#FFFFFF;stroke:#EA5D72;stroke-width:5;stroke-linecap:round;stroke-linejoin:round;stroke-miterlimit:10;} .st69{fill:#FFFFFF;stroke:#26B67C;stroke-width:5;stroke-linecap:round;stroke-linejoin:round;stroke-miterlimit:10;} .st70{fill:#FFFFFF;stroke:#CE311D;stroke-width:5;stroke-linecap:round;stroke-linejoin:round;stroke-miterlimit:10;} .st71{fill:#FFFFFF;stroke:#F09F2E;stroke-width:5;stroke-linecap:round;stroke-linejoin:round;stroke-miterlimit:10;} .st72{fill:none;stroke:#F09F2E;stroke-width:4;stroke-linecap:round;stroke-linejoin:round;stroke-miterlimit:10;} .st73{opacity:0.19;fill:#F09F2E;} .st74{fill:#FFFFFF;stroke:#DD3E00;stroke-width:4;stroke-linecap:round;stroke-linejoin:round;stroke-miterlimit:10;} .st75{fill:none;stroke:#DD3E00;stroke-width:4;stroke-linecap:round;stroke-linejoin:round;stroke-miterlimit:10;} .st76{opacity:0.14;fill:#DD3E00;} .st77{fill:none;stroke:#26B67C;stroke-width:4;stroke-linecap:round;stroke-linejoin:round;stroke-miterlimit:10;} .st78{opacity:0.19;} .st79{opacity:0.19;fill:#26B67C;} .st80{fill:none;stroke:#EA5D72;stroke-width:4;stroke-linecap:round;stroke-linejoin:round;stroke-miterlimit:10;} .st81{opacity:0.19;fill:#EA5D72;} .st82{fill:#B3B3B3;} .st83{fill:#CCCCCC;} .st84{fill:none;stroke:#CCCCCC;stroke-miterlimit:10;} .st85{fill:#666666;} .st86{fill:none;stroke:#666666;stroke-width:12;stroke-linecap:round;stroke-linejoin:round;stroke-miterlimit:10;} .st87{fill:none;stroke:#EA5D72;stroke-width:12;stroke-linecap:round;stroke-linejoin:round;stroke-miterlimit:10;} .st88{fill:#FFFFFF;stroke:#666666;stroke-width:12;stroke-linecap:round;stroke-linejoin:round;stroke-miterlimit:10;} .st89{fill:#FFFFFF;stroke:#EA5D72;stroke-width:12;stroke-linecap:round;stroke-linejoin:round;stroke-miterlimit:10;} .st90{opacity:0.46;} .st91{opacity:0.75;} .st92{fill:#F2F2F2;} .st93{fill:#5CB85C;} .st94{fill:none;stroke:#FFFFFF;stroke-miterlimit:10;} .st95{fill:#5E8AFB;} .st96{fill:#767676;} .st97{fill:#757575;} .st98{fill:none;stroke:#767676;stroke-width:2;stroke-miterlimit:10;} .st99{fill:#FBE7CB;} .st100{fill:#F3CBC6;} .st101{fill:#FAD6DC;} .st102{fill:#C9EDDE;}</style>
  <circle
     class="st59"
     cx="27.8"
     cy="27.8"
     r="26.5"
     id="circle5"
     style="fill:#7f2aff" />
  <g
     id="g4146"
     transform="translate(2.6078924,0.29561078)">
    <g
       id="XMLID_24_">
      <path
         sodipodi:nodetypes="csccsccscscccscsscsccsccscsccscsccccsscccc"
         style="fill:#ffffff"
         inkscape:connector-curvature="0"
         id="path8"
         d="m 30.9,34.4 c -0.1,0.2 -0.3,0.8 -0.3,3.8 l 0,2.2 -11.2,0 0,-6.4 c 0,-0.3 -0.2,-0.6 -0.5,-1.1 C 18.3,32 17.1,30.3 16.4,27.1 16.1,25.7 16,24 16,22.1 l 0,-0.1 0,-2.5 c 0,-1.8 0.1,-3.6 0.2,-4 0,-0.1 0.2,-0.2 0.8,-0.3 0.9,-0.1 1.7,0.1 2,0.4 l 0,0.7 c 0,1 0,1 0.1,1.1 0.1,0.2 0.3,0.3 0.6,0.3 0.2,0 0.4,-0.2 0.4,-0.5 0,-0.2 0,-0.7 0.1,-1.2 0,-0.5 0.1,-1.3 0.1,-1.5 0,-0.1 0.3,-0.3 0.9,-0.4 1,-0.2 2.1,0.1 2.4,0.5 l 0,0.7 c 0,0.7 0,0.8 0.1,0.9 0.1,0.2 0.3,0.4 0.5,0.3 0.2,0 0.4,-0.2 0.4,-0.5 0,-0.2 0,-0.6 0.1,-1.1 0,-0.5 0.1,-1.3 0.1,-1.5 0,-0.1 0.3,-0.3 1,-0.4 1,-0.1 2,0.1 2.4,0.5 l 0,0.8 c 0,1 0,1 0.1,1.1 0.1,0.2 0.3,0.3 0.5,0.3 0.2,0 0.4,-0.2 0.5,-0.4 l 0,-1 0,-0.9 c 0.1,-0.1 0.3,-0.3 0.9,-0.4 1.1,-0.2 2.3,0.1 2.5,0.5 0.2,0.4 0.4,1.8 0.4,3.9 0,1.2 -0.1,2.3 -0.2,3.2 l 0,0.2 c 0.2,1.2 0.5,1.9 1,2.3 0.958085,0.771832 0.656233,6.459467 -3,11.3 z"
         class="st34" />
      <path
         sodipodi:nodetypes="cccsccsccccscccsscccccsccscccsscccscccsccccccscccscccssssssscccsscccc"
         style="fill:#440055"
         inkscape:connector-curvature="0"
         id="path10"
         d="m 16.1,22.2 c -0.1,1.9 0.1,3.6 0.4,5 0.6,3.1 1.8,4.8 2.5,5.8 0.3,0.5 0.5,0.8 0.5,1.1 l 0,6.4 11.2,0 0,-2.2 c 0,-2.9 0.2,-3.6 0.3,-3.8 1.125739,-3.06948 4.459809,-7.21935 2.9,-11.2 -0.4,-0.4 -0.7,-1.1 -1,-2.3 l 0,-0.2 c 0.1,-0.8 0.2,-2 0.2,-3.2 0,-2.1 -0.2,-3.6 -0.4,-3.9 -0.2,-0.4 -1.4,-0.7 -2.5,-0.5 -0.6,0.1 -0.8,0.3 -0.9,0.4 l 0,1.9 c 0,0.2 -0.2,0.4 -0.5,0.4 -0.2,0 -0.4,-0.1 -0.5,-0.3 0,-0.1 0,-0.1 -0.1,-1.1 l 0,-0.8 c -0.3,-0.4 -1.4,-0.6 -2.4,-0.5 -0.6,0.1 -0.9,0.3 -1,0.4 0,0.1 -0.1,0.9 -0.1,1.5 0,0.4 0,0.8 -0.1,1.1 0,0.2 -0.2,0.4 -0.4,0.5 -0.2,0 -0.5,-0.1 -0.5,-0.3 0,-0.1 0,-0.2 -0.1,-0.9 l 0,-0.7 c -0.3,-0.4 -1.4,-0.6 -2.4,-0.5 -0.6,0.1 -0.9,0.3 -0.9,0.4 0,0.2 -0.1,0.9 -0.1,1.5 0,0.5 0,1 -0.1,1.2 0,0.2 -0.2,0.4 -0.4,0.5 -0.2,0 -0.4,-0.1 -0.6,-0.3 C 19,17.3 19,17.3 19,16.3 l 0,-0.7 c -0.3,-0.3 -1.2,-0.5 -2,-0.4 -0.6,0.1 -0.8,0.3 -0.8,0.3 -0.1,0.5 -0.2,2.2 -0.2,4 0,1.1 0,2 0.1,2.7 0,-0.1 0,-0.1 0,0 z m 3.1,-8 c 0.2,-0.6 0.8,-1 1.8,-1.2 0.9,-0.1 2.1,0 2.8,0.4 l 0,-0.2 c 0.2,-0.6 0.8,-1.1 1.8,-1.2 1,-0.1 2.3,0 3,0.6 0.3,-0.3 0.8,-0.5 1.4,-0.6 1.3,-0.2 3,0.1 3.5,1 0.6,0.9 0.6,3.9 0.6,4.5 0,1.2 -0.1,2.4 -0.2,3.2 0.2,1.2 0.5,1.5 0.6,1.6 2.298268,6.948372 0.230525,7.100826 -2.7,12.5 -0.1,0.3 -0.2,1.1 -0.2,3.5 l 0,2.7 c 0,0.1 0,0.3 -0.1,0.4 -0.1,0.1 -0.2,0.2 -0.4,0.2 l -12.2,0 c -0.3,0 -0.5,-0.2 -0.5,-0.5 l 0,-6.9 c 0,-0.1 -0.2,-0.3 -0.4,-0.6 -0.7,-1 -2,-2.8 -2.6,-6.1 C 15.1,26 15,24.2 15,22.3 c -0.1,-0.8 -0.1,-1.9 -0.1,-2.7 0,-0.8 0,-1.7 0.1,-2.5 0.1,-0.8 0.1,-1.5 0.2,-1.8 0.1,-0.6 0.7,-1 1.6,-1.1 0.7,-0.1 1.6,0 2.3,0.3 0,-0.1 0,-0.2 0.1,-0.3 z"
         class="st5" />
    </g>
    <path
       style="fill:#440055"
       id="path12"
       d="m 16.667,43.068 0,-4.2 17.1,0 0,4.2 z"
       class="st5"
       inkscape:connector-curvature="0" />
  </g>
</svg>
